<svg height="423pt" viewBox="0 -79 423.25326 423" width="423pt" xmlns="http://www.w3.org/2000/svg"><path d="m207.398438 264.4375c-72.546876.003906-114.648438-41.15625-116.652344-43.164062-2.503906-2.496094-2.679688-6.484376-.421875-9.195313l19.40625-23.285156c2.421875-2.894531 6.714843-3.296875 9.621093-.875 2.894532 2.414062 3.285157 6.71875.875 9.613281l-15.132812 18.15625c14.625 11.824219 62.636719 44.511719 133.957031 32.363281 3.730469-.621093 7.242188 1.871094 7.875 5.585938.632813 3.714843-1.867187 7.242187-5.582031 7.875-11.953125 2.035156-23.277344 2.925781-33.945312 2.925781zm0 0"/><path d="m120.40625 80.675781c-1.492188 0-3-.488281-4.261719-1.496093l-18.011719-14.417969c-1.515624-1.210938-2.441406-3.011719-2.546874-4.953125-.113282-1.9375.613281-3.828125 1.988281-5.203125 2.945312-2.945313 73.144531-71.878907 161.445312-50.304688 3.660157.894531 5.90625 4.589844 5.015625 8.253907-.902344 3.664062-4.601562 5.90625-8.253906 5.011718-67.328125-16.445312-124.976562 26.324219-142.847656 41.554688l11.746094 9.398437c2.941406 2.355469 3.421874 6.648438 1.066406 9.59375-1.351563 1.683594-3.332032 2.5625-5.339844 2.5625zm0 0"/><path d="m266.238281 264.234375c-8.546875 0-17.734375-.921875-27.3125-2.734375-3.699219-.699219-6.132812-4.273438-5.433593-7.976562.699218-3.703126 4.226562-6.152344 7.980468-5.4375 8.738282 1.65625 17.074219 2.492187 24.765625 2.492187 39.519531 0 76.402344-15.835937 101.1875-43.453125 2.527344-2.8125 6.839844-3.03125 9.640625-.523438 2.804688 2.519532 3.039063 6.835938.519532 9.640626-27.367188 30.5-67.953126 47.992187-111.347657 47.992187zm0 0"/><path d="m240.207031 261.621094c-.421875 0-.847656-.039063-1.28125-.117188-57.667969-10.921875-128.035156-55.136718-153.644531-96.550781-3.976562-6.417969-12.632812-8.300781-19.308594-4.191406l-55.566406 34.191406c-2.59375 1.59375-5.921875 1.285156-8.160156-.75-2.2539065-2.035156-2.886719-5.3125-1.558594-8.042969l13.757812-28.34375c3.695313-15.25 3.695313-31.324218 0-46.574218l-13.757812-28.34375c-1.328125-2.730469-.6953125-6.007813 1.558594-8.042969 2.246094-2.035157 5.574218-2.34375 8.160156-.75l56.699219 34.886719c6.480469 4 15.015625 2.078124 19.402343-4.363282 30.757813-45.207031 117.785157-99.804687 179.730469-99.804687 79.046875 0 143.359375 58.1875 143.359375 129.707031 0 4.859375-.300781 9.734375-.886718 14.492188-.460938 3.742187-3.925782 6.414062-7.605469 5.9375-3.746094-.460938-6.40625-3.871094-5.941407-7.613282.523438-4.203125.78125-8.515625.78125-12.820312 0-63.992188-58.1875-116.050782-129.707031-116.050782-57.9375 0-139.527343 51.328126-168.4375 93.832032-8.5 12.496094-25.128906 16.144531-37.855469 8.308594l-36.753906-22.613282 3.847656 7.921875c.207032.425781.367188.871094.480469 1.324219 4.464844 17.84375 4.464844 36.710938 0 54.554688-.113281.457031-.273437.898437-.480469 1.324218l-3.847656 7.925782 35.621094-21.921876c13.066406-8.046874 30.148438-4.167968 38.078125 8.636719 23.902344 38.644531 90.109375 80.003907 144.574219 90.320313 3.707031.699218 6.140625 4.269531 5.441406 7.976562-.621094 3.273438-3.488281 5.554688-6.699219 5.554688zm0 0"/><path d="m369.691406 215.292969c-10.765625 0-32.683594-1.5-55.140625-11.863281-32.257812-14.890626-53.632812-42.941407-61.8125-81.125-.792969-3.6875 1.550781-7.3125 5.238281-8.105469 3.726563-.796875 7.320313 1.558593 8.105469 5.246093 7.355469 34.296876 25.582031 58.382813 54.1875 71.585938 27.335938 12.617188 54.300781 10.5 54.566407 10.480469.589843-.136719 25.726562-5.222657 33.609374-46.503907h-32.980468c-3.773438 0-6.824219-3.054687-6.824219-6.824218 0-3.773438 3.050781-6.828125 6.824219-6.828125h40.960937c1.960938 0 3.820313.839843 5.121094 2.308593 1.292969 1.46875 1.898437 3.421876 1.652344 5.367188-7.371094 59.011719-45.09375 65.761719-46.691407 66.023438-.46875.042968-2.910156.238281-6.816406.238281zm0 0"/><path d="m334.503906 100.394531c-3.773437 0-6.824218-3.058593-6.824218-6.828125 0-3.765625-3.0625-6.828125-6.828126-6.828125-3.765624 0-6.824218 3.0625-6.824218 6.828125 0 3.769532-3.054688 6.828125-6.828125 6.828125-3.773438 0-6.828125-3.058593-6.828125-6.828125 0-11.292968 9.1875-20.480468 20.480468-20.480468 11.292969 0 20.480469 9.1875 20.480469 20.480468 0 3.769532-3.054687 6.828125-6.828125 6.828125zm0 0"/><path d="m191.152344 66.261719c-2.398438 0-4.726563-1.269531-5.972656-3.515625-1.828126-3.296875-.640626-7.449219 2.652343-9.28125 2.605469-1.449219 64.535157-35.34375 114.414063-21.078125 3.628906 1.035156 5.726562 4.8125 4.695312 8.4375-1.042968 3.632812-4.855468 5.722656-8.441406 4.691406-44.453125-12.699219-103.445312 19.554687-104.039062 19.882813-1.046876.585937-2.1875.863281-3.308594.863281zm0 0"/></svg>